<svg width="40" height="40" viewBox="0 0 40 40" fill="none" xmlns="http://www.w3.org/2000/svg">
<path fill-rule="evenodd" clip-rule="evenodd" d="M21.9135 32.9603C21.2578 32.3064 20.8716 31.43 20.8708 30.4936V22.43C20.8716 21.4331 21.7874 20.8869 22.4107 20.8861H30.4873C32.1549 20.8837 33.9565 22.1998 33.9592 24.3451C33.9615 26.2585 32.4185 27.8177 30.5192 27.8208C29.2978 27.8224 28.4785 27.2531 28.0086 26.7751C28.007 26.7744 27.7006 26.4688 27.6025 26.369C27.6679 26.1879 27.7356 25.9546 27.7356 25.6307V25.6299C27.7356 24.4754 26.7875 23.5335 25.6202 23.5296C25.0588 23.5272 24.56 23.7301 24.1722 24.1156C23.7751 24.5121 23.5364 25.0813 23.5348 25.6366C23.5348 26.1739 23.7797 26.7548 24.1738 27.1501C24.5584 27.5368 25.065 27.7401 25.6397 27.7393C25.9547 27.7385 26.2179 27.6495 26.3554 27.6008C26.4278 27.6714 26.7708 28.0062 26.7708 28.0062C27.0208 28.2422 27.8322 29.1178 27.8353 30.4994V30.5041C27.8353 32.6447 26.0376 33.9748 24.3708 33.9776C23.4468 33.9799 22.5719 33.6182 21.9135 32.9603ZM7.12086 26.8555C6.46206 26.1969 6.08438 25.2959 6.08282 24.3841C6.08049 23.4558 6.44026 22.5807 7.09633 21.9216C7.75046 21.2638 8.62263 20.8876 9.55749 20.8861H17.6056C18.6 20.8876 19.1615 21.7921 19.163 22.4164V30.5112C19.1642 31.4285 18.7811 32.3333 18.1234 32.9939C17.673 33.4473 16.8853 33.9885 15.6942 33.9893C13.784 33.9916 12.2289 32.4461 12.2258 30.5439V30.5377C12.2258 29.3199 12.7939 28.4998 13.2701 28.0261C13.2708 28.0261 13.5757 27.7178 13.673 27.6191C13.8557 27.6858 14.0873 27.7537 14.4105 27.7545C15.5649 27.7545 16.5033 26.8044 16.508 25.6346C16.5088 25.072 16.3082 24.5698 15.9224 24.1804C15.528 23.7828 14.9607 23.5448 14.4062 23.5432C13.8708 23.5425 13.2907 23.7855 12.8959 24.1812C12.512 24.5675 12.3064 25.0743 12.3064 25.6483V25.6522C12.3064 25.9659 12.3971 26.232 12.4466 26.369C12.3741 26.4423 12.0397 26.7876 12.0397 26.7876C11.8061 27.0373 10.9284 27.8505 9.55204 27.852C8.62886 27.8544 7.76642 27.5001 7.12086 26.8555ZM20.8708 9.54186C20.8685 8.62571 21.229 7.72165 21.8863 7.06107C22.3364 6.60728 23.1272 6.06649 24.3167 6.06453C25.2344 6.06414 26.1365 6.43716 26.7868 7.08955C27.4292 7.73218 27.7835 8.59254 27.7843 9.51103V9.5165C27.7843 10.737 27.2194 11.5556 26.7416 12.0277C26.7408 12.0289 26.4367 12.3352 26.3378 12.4347C26.1583 12.3684 25.9243 12.2997 25.6012 12.2989C24.4506 12.2985 23.5099 13.251 23.5045 14.4203C23.5029 14.983 23.7046 15.4855 24.0924 15.8742C24.4868 16.2722 25.0522 16.5109 25.6062 16.5121H25.6093C26.1478 16.5121 26.7229 16.2663 27.1166 15.8722C27.5024 15.4879 27.7037 14.9806 27.7037 14.4067V14.4024C27.7037 14.0887 27.6149 13.8226 27.5674 13.6841C27.6368 13.6127 27.9724 13.2669 27.9724 13.2669C28.2087 13.0165 29.0817 12.2049 30.4581 12.2025C32.598 12.1994 33.9261 14.0001 33.9296 15.6713C33.9312 16.5991 33.5706 17.4735 32.9153 18.1333C32.262 18.7904 31.3883 19.1607 30.453 19.1619H22.4084C21.414 19.1611 20.8716 18.2625 20.8708 17.637V9.54186ZM13.2934 12.0379L13.2918 12.0367C13.0426 11.8014 12.2335 10.9258 12.2312 9.54382V9.53562C12.2312 7.39702 14.025 6.07 15.6915 6.06571C16.6181 6.06415 17.4891 6.42468 18.1468 7.08136C18.8032 7.73648 19.1615 8.61323 19.163 9.55045V17.6132C19.1622 18.6098 18.2792 19.1619 17.6562 19.1619H9.57576C8.66076 19.1642 7.75939 18.7916 7.1002 18.1333C6.64776 17.6815 6.10771 16.8918 6.10616 15.6982C6.1046 14.7793 6.47683 13.8772 7.12823 13.2236C7.77029 12.5802 8.6265 12.2244 9.54305 12.2232C10.7633 12.222 11.5833 12.7913 12.0564 13.2693C12.0564 13.2693 12.362 13.5744 12.4633 13.6727C12.394 13.8534 12.3262 14.0867 12.3262 14.4121C12.3262 15.5667 13.2759 16.5102 14.442 16.5156C15.0046 16.518 15.5057 16.3131 15.8967 15.9245C16.2934 15.5285 16.5309 14.9615 16.5309 14.4067C16.5317 13.8682 16.2884 13.2884 15.8943 12.8932C15.5073 12.5069 15 12.3032 14.4253 12.3036C14.1103 12.3044 13.8478 12.3949 13.7073 12.4433C13.6364 12.373 13.2934 12.0379 13.2934 12.0379ZM20.0304 6.82773C19.0267 5.3302 17.3839 4.4 15.7085 4.4C12.8385 4.4 10.5884 6.68492 10.5884 9.60194C10.5884 9.88209 10.6476 10.2742 10.7566 10.7623C10.4926 10.7062 9.99892 10.6129 9.59087 10.6129C6.68117 10.6129 4.3999 12.8565 4.3999 15.7212C4.3999 17.4072 5.33826 19.0549 6.84704 20.0628C5.32386 21.0835 4.41197 22.6739 4.41197 24.3466C4.41197 27.177 6.74191 29.4783 9.60528 29.4783C9.95493 29.4783 10.3801 29.396 10.7481 29.3152C10.6464 29.7838 10.5884 30.1779 10.5884 30.4632C10.5884 33.3802 12.8385 35.6651 15.7085 35.6651C17.41 35.6651 18.9971 34.7755 19.9915 33.2865C20.9489 34.7115 22.6691 35.6651 24.3181 35.6651C27.178 35.6651 29.4156 33.3802 29.4156 30.4632C29.4156 30.0835 29.3335 29.6262 29.2673 29.3152C29.7547 29.4198 30.1449 29.4783 30.4229 29.4783C33.2855 29.4783 35.6135 27.177 35.6135 24.3466C35.6135 22.6587 34.7067 21.0187 33.2423 20.0312C34.7067 19.0444 35.6135 17.4099 35.6135 15.7177C35.6135 12.9021 33.2742 10.6102 30.3988 10.6102C30.039 10.6102 29.6041 10.7019 29.2642 10.776C29.3202 10.5099 29.4156 10.0054 29.4156 9.60194C29.4156 6.68492 27.178 4.4 24.3181 4.4C22.6524 4.4 21.0284 5.32942 20.0304 6.82773Z" fill="#E00000"/>
</svg>
